# xmcd
#
# Track frame offsets: 
#        150
#        16204
#        37107
#        58250
#        71005
#        88947
#        105966
#        127471
#        143591
#        162528
#        179186
#        198837
#        215700
#        236259
#        253574
#        270641
#        288003
#        302260
#        317229
#        334629
#
# Disc length: 4787 seconds
#
# Revision: 2
# Processed by: cddbd v1.5.2PL0 Copyright (c) Steve Scherf et al.
# Submitted via: ExactAudioCopy v1.0b3
#
DISCID=2c12b114
DTITLE=George Harrison - Greatest Hits CD 1)
DYEAR=2010
DGENRE=Classic Rock
TTITLE0=Give Me Love (Give Me Peace On Earth)
TTITLE1=My Sweet Lord
TTITLE2=Sue Me, Sue You Blues
TTITLE3=Run Of The Mill
TTITLE4=Blow Away
TTITLE5=All Things Must Pass
TTITLE6=While My Guitar Gently Weeps (live)
TTITLE7=Not Guilty
TTITLE8=This Song
TTITLE9=You
TTITLE10=What Is Life
TTITLE11=All Those Years Ago
TTITLE12=Love Comes To Everyone
TTITLE13=Got My Mind Set On You
TTITLE14=This Is Love
TTITLE15=When We Was Fab
TTITLE16=Something (live)
TTITLE17=Handle With Care
TTITLE18=Any Road
TTITLE19=Rising Sun
EXTD=
EXTT0=
EXTT1=
EXTT2=
EXTT3=
EXTT4=
EXTT5=
EXTT6=
EXTT7=
EXTT8=
EXTT9=
EXTT10=
EXTT11=
EXTT12=
EXTT13=
EXTT14=
EXTT15=
EXTT16=
EXTT17=
EXTT18=
EXTT19=
PLAYORDER=
